<?xml version="1.0" encoding="utf-8"?>
<!-- Generator: Adobe Illustrator 21.1.0, SVG Export Plug-In . SVG Version: 6.00 Build 0)  -->
<!DOCTYPE svg PUBLIC "-//W3C//DTD SVG 1.1//EN" "http://www.w3.org/Graphics/SVG/1.1/DTD/svg11.dtd">
<svg version="1.1" id="Layer_1" xmlns="http://www.w3.org/2000/svg" xmlns:xlink="http://www.w3.org/1999/xlink" x="0px" y="0px"
	 viewBox="0 0 265 40" style="enable-background:new 0 0 265 40;" xml:space="preserve">
<style type="text/css">
	.st0{fill:#242A5C;}
</style>
<g>
	<g>
		<path class="st0" d="M2.1,9.2h8c3.7,0,6,1.7,6,4.8c0,2.2-1.1,3.4-2.6,4c1.7,0.5,3.3,1.7,3.3,4.4c0,3.4-2.5,5.3-7.1,5.3H1.9V9.2
			H2.1z M9.4,16.4c1.4,0,1.9-0.6,1.9-1.7c0-1-0.5-1.7-1.8-1.7H6.9v3.3h2.5V16.4z M9.8,23.8c1.6,0,2.1-0.7,2.1-1.9
			c0-1.2-0.6-1.9-2.1-1.9h-3v3.8H9.8z"/>
		<path class="st0" d="M22,9.2h4.9v14.3h7.8v4.2H22V9.2z"/>
		<path class="st0" d="M38.9,20.5V9.2h4.9v11.3c0,2.1,1,3.3,3.1,3.3s3.1-1.2,3.1-3.3V9.2h4.9v11.3c0,5-3.4,7.4-8,7.4
			S38.9,25.5,38.9,20.5z"/>
		<path class="st0" d="M60.6,9.2h12.9v4.2h-8v3h6.7v3.9h-6.7v3.2h8.4v4.2H60.6V9.2z"/>
		<path class="st0" d="M77.5,24.5l3.6-2.7c0.9,1.1,2,2,3.9,2c1.5,0,2.3-0.4,2.3-1.5c0-0.8-0.6-1.2-1.8-1.6L83.3,20
			c-2.7-0.9-4.6-2.5-4.6-5.6c0-3.6,3-5.5,6.3-5.5s5.2,1.2,6.3,2.4l-2.8,3c-0.8-0.8-1.7-1.3-3.2-1.3c-1.2,0-1.8,0.5-1.8,1.3
			c0,0.7,0.4,1.1,1.3,1.4l2.4,0.8c3.7,1.2,4.9,3,4.9,5.6c0,3.4-2.1,5.8-7,5.8C81,27.9,78.7,26,77.5,24.5z"/>
		<path class="st0" d="M100.4,13.4h-4.9V9.2h14.7v4.2h-4.9v14.3h-4.9V13.4z"/>
		<path class="st0" d="M113.3,18.4c0-5.6,4.6-9.4,9.9-9.4c5.3,0,9.9,3.9,9.9,9.4c0,5.6-4.6,9.5-9.9,9.5
			C117.9,27.9,113.3,24,113.3,18.4z M128.1,18.4c0-2.9-1.8-5.2-4.9-5.2c-3.1,0-4.9,2.3-4.9,5.2s1.8,5.2,4.9,5.2
			C126.3,23.6,128.1,21.3,128.1,18.4z"/>
		<path class="st0" d="M142.8,18.5v9.2h-4.6V9c0-0.2,0.1-0.3,0.4-0.1l11.6,9.5V9.2h4.6v18.7c0,0.2-0.1,0.3-0.4,0.1L142.8,18.5z"/>
		<path class="st0" d="M160.6,9.2h12.9v4.2h-8v3h6.7v3.9h-6.7v3.2h8.4v4.2h-13.3L160.6,9.2L160.6,9.2z"/>
		<path class="st0" d="M188.3,9.2h4.9v14.3h7.8v4.2h-12.8V9.2H188.3z"/>
		<path class="st0" d="M217,25.4h-6.4l-0.9,2.2h-4.8l9-18.8c0.1-0.2,0.2-0.2,0.3,0l9,18.8h-5.1L217,25.4z M212.1,21.9h3.3l-1.7-3.9
			L212.1,21.9z"/>
		<path class="st0" d="M232.2,18.5v9.2h-4.6V9c0-0.2,0.1-0.3,0.4-0.1l11.6,9.5V9.2h4.6v18.7c0,0.2-0.1,0.3-0.4,0.1L232.2,18.5z"/>
		<path class="st0" d="M250,9.2h12.9v4.2h-8v3h6.7v3.9h-6.7v3.2h8.4v4.2H250V9.2z"/>
	</g>
</g>
</svg>
